/* XPM */
static char*ktop[]={
"32 32 12 1",
"b c #808080",
"j c #a0a0a0",
"c c #c3c3c3",
"h c #ff9b9b",
"# c #000000",
"e c #303030",
"i c #ffbfbf",
". c None",
"a c #585858",
"g c #ff4e4e",
"d c #ffffff",
"f c #ff0000",
"............#######aaa..........",
".........###bbcccbb###aa........",
".......##bbbdde#eddbbb##a.......",
"......#bbdddddd#ddddddbb#a......",
".....#bbedddfgfffffdddebb#ab....",
"....#bde#dgfffgffffffd#edb#a....",
"...#bddddffgdddddddffffdddb#a...",
"..#bbdddffdddddddddddff#ddcbaa..",
"..#beddggddddfgfffddde#dddeb#a..",
".#ce#dggdddffgffffffb#eddd#ec#a.",
".#bddghdddggfdddddfb#bddddddb#a.",
".#bddggddghgddddddb#bdddddddb#a.",
"#bddhhdddggddddddb#bdddddddddb#a",
"#bddhhddhhdddddda#bddddddddddb#a",
"#cedihddhiddddje#addddddddddec#a",
"#c##hhddiidddde#edddddddddd##c#a",
"#cediiddiiddddjejdddddddddddec#a",
"#bddiidddddddddddddddddddddddb#b",
"#bddiidddddddddddddddddddddddb#b",
"##edddddddddddddddddddddddddb#b.",
".#edddddd#####ddddd###ddddddb#b.",
".#edddddddd#ddd##dd#dd#dddddb#j.",
".e#ce#ddddd#dd#dd#d###ddd#ej#e..",
"..#eceddddd#dd#dd#d#dddddejb#j..",
"..e#edddddd#ddd##dd#ddddddb#e...",
"...e#adddddddddddddddddddb#ej...",
"....e#ebdddddddddddddddbb#ej....",
".....e#ebdddddddddddddbb#ej.....",
"......e##eeedddddddbbb##ej......",
"........e###eeeaaab###ee........",
"..........e########ee...........",
"................................"};
