/* XPM */
static char*mini[]={
"16 16 11 1",
"h c #a0a0a0",
"c c #ff2d2d",
"# c #000000",
"g c #ff9292",
"a c #303030",
"e c #ff6c6c",
". c None",
"f c #585858",
"b c #ffffff",
"d c #ff0000",
"i c #ffa9a9",
".....#####a.....",
"...##bbabb##a...",
"..#bacccddab#a..",
".#bbebbbbbdbb#..",
".#aebbecdf#ba#a.",
"#bgbbebbf#bbbb#h",
"#bgbgbbf#bbbbb#a",
"#aibgbb#bbbbba#a",
"#bibibbbbbbbbb#a",
"#bbb###bb##bbb#f",
"a#bbb#h#f#fbb#a.",
".#bbb#b#f#bbb#..",
".a#bbbbbbbbb#a..",
"..a##bbbbb##a...",
"....a#####af....",
"................"};
