/* XPM */
/* Drawn  by Nico Schwiring and Mark Donohoe for the K Desktop Environment */
/* See http://www.kde.org */
static char*kcontrol[]={
"16 16 16 1",
"# c #000000",
"f c #008000",
"d c #808080",
"g c #c0c0c0",
"i c #c00000",
"k c #ffff00",
"e c #585858",
"n c #00ff00",
"m c #ffbebe",
"c c #ffffbe",
"l c #0000ff",
"a c #00c000",
"h c #c0c000",
"j c #ff0000",
"b c #ffffff",
". c None",
".##############.",
"#aaaaaaa#bbbbbb#",
"#cddee#f#eeeeeg#",
"#fffee#f######g#",
"#cdd###f##h#i#g#",
"#ffffdjf######g#",
"#ff#fdff##k#j#g#",
"g#afddff######g#",
"g#adfdlf##c#m#g#",
"g#aefeff######g#",
"g#ae#e#f#gggggg#",
"g#a####f#ddddnd#",
"g#afffff#######.",
".########gd#....",
"..#gggggggggg#..",
"..############.."};

