/* XPM */
/* Drawn  by Mark Donohoe for the K Desktop Environment */
/* See http://www.kde.org */
static char*launch[]={
"16 16 5 1",
"# c #000000",
"a c #ffffff",
"c c #808080",
"b c #c0c0c0",
". c None",
"................",
".........####...",
".........#a##...",
".....##.#ab##...",
"....#aa#ca##....",
"...#cc##ab##....",
"...#ab##a##.....",
"...#ab##c##.....",
"...#ab######....",
"...#ab#######...",
"...#ab##c#####..",
"...#ab##..###...",
"...#ab##...#....",
"...#ab##........",
"...#bb##........",
"....###........."};
