/* XPM */
/* Drawn  by Nico Schwiring and Mark Donohoe for the K Desktop Environment */
/* See http://www.kde.org */
static char*kwm[]={
"16 14 4 1",
"b c #ffffff",
". c #000000",
"a c #0000ff",
"# c None",
"..........######",
".aaaaaaaa.######",
".bbbbbbbb.######",
".bbbbb..........",
".bbbbb.aaaaaaaa.",
".bbbbb.bbbbbbbb.",
".bb..........bb.",
".bb.aaaaaaaa.bb.",
"....bbbbbbbb.bb.",
"###.bbbbbbbb.bb.",
"###.bbbbbbbb.bb.",
"###.bbbbbbbb....",
"###.bbbbbbbb.###",
"###..........###"};

