/* XPM */
static char* group = {
"19 16 10 2",
"__ c #000000",
"_` c #000084",
"_a c #0000ff",
"_b c #00ffff",
"_c c #848200",
"_d c #848284",
"_e c #c6c3c6",
"_f c #ff00ff",
"_g c #ffff00",
"_h c None",
"_h_h_h_h_h_h_h_h___________h_h_h_h_h_h", 
"_h_h_h_h_h_h_h___g_g_g_g_g_________h_h", 
"_h_h_h_h_h_h___g_g_g_________________h", 
"_h_h_h_h_h___g_g_g___h_h_h_____d_____h", 
"_h_h_h_h_h___g_g_g___h_d_____d_d_d___h", 
"_h_h_________g_g___h_h_h_h_h___d_____h", 
"_h___e_e_e_e_g_g___h_h_h_e___d_d_d_d__", 
"_h___e_`_`_`_g_g___h_h_h_h___d_d_d___h", 
"_h___e_`_b_a_g_g___h_d_____d_d_d_d___h", 
"_h___e_`_b_a_a_c_g___h_______d_____h_h", 
"_h___e_a_a_a_a_a_g_g___h_____d___h_h_h", 
"_h___e_e_e_e_e_e_e_e_f_f_h___b_d___h_h", 
"_h_____________________f_f_f___h_h___h", 
"___h_h_h_h_h_h_h_h_h_h_____h_h_h_h_h_h", 
"___e_e_e_e_e_e_e_e_e_e_____h_h_h_h_h_h", 
"___________________________h_h_h_h_h_h", 
} ;
SIMPLE  =                    T                                                  BITPIX  =                    8                                                  NAXIS   =                    2                                                  NAXIS1  =                   19                                                  NAXIS2  =                   16                                                  HISTORY Written by XV 3.10a                                                     END                                                                                                                                                                                                                                                                                                                                                                                                                                                                                                                                                                                                                                                                                                                                                                                                                                                                                                                                                                                                                                                                                                                                                                                                                                                                                                                                                                                                                                                                                                                                                                                                                                                                                                                                                                                                                                                                                                                                                                                                                                                                                                                                                                                                                                                                                                                                                                                                                                                                                             
