/* XPM */
/* Drawn  by Mark Donohoe for the K Desktop Environment */
/* See http://www.kde.org */
static char*log[]={
"16 14 2 1",
"# c #000000",
". c None",
"................",
".......#........",
".......#........",
".......#........",
".......#........",
".......##.....#.",
"...#..###.....#.",
"...#..###.....#.",
"...#..####....#.",
".#.#..####...##.",
".###..#####..##.",
".####.#########.",
"################",
"################"};

